<svg width="20" height="18" viewBox="0 0 20 18" fill="none" xmlns="http://www.w3.org/2000/svg">
<path d="M13.3334 12.3333V1.5H0.833374V12.3333H13.3334ZM13.3334 12.3333H19.1667V8.16667L16.6667 5.66667H13.3334L13.3334 12.3333ZM6.66671 14.4167C6.66671 15.5673 5.73397 16.5 4.58337 16.5C3.43278 16.5 2.50004 15.5673 2.50004 14.4167C2.50004 13.2661 3.43278 12.3333 4.58337 12.3333C5.73397 12.3333 6.66671 13.2661 6.66671 14.4167ZM17.5 14.4167C17.5 15.5673 16.5673 16.5 15.4167 16.5C14.2661 16.5 13.3334 15.5673 13.3334 14.4167C13.3334 13.2661 14.2661 12.3333 15.4167 12.3333C16.5673 12.3333 17.5 13.2661 17.5 14.4167Z" stroke="#F5F5F5" stroke-width="2" stroke-linecap="round" stroke-linejoin="round"/>
</svg>
