<svg width="20" height="16" viewBox="0 0 20 16" fill="none" xmlns="http://www.w3.org/2000/svg">
<path d="M18.3333 7.99999H13.3333L11.6666 10.5H8.33329L6.66663 7.99999H1.66663M18.3333 7.99999V13C18.3333 13.442 18.1577 13.8659 17.8451 14.1785C17.5326 14.4911 17.1087 14.6667 16.6666 14.6667H3.33329C2.89127 14.6667 2.46734 14.4911 2.15478 14.1785C1.84222 13.8659 1.66663 13.442 1.66663 13V7.99999M18.3333 7.99999L15.4583 2.25833C15.3203 1.98065 15.1076 1.74697 14.8441 1.58356C14.5806 1.42015 14.2767 1.33349 13.9666 1.33333H6.03329C5.72322 1.33349 5.41935 1.42015 5.15583 1.58356C4.89231 1.74697 4.67961 1.98065 4.54163 2.25833L1.66663 7.99999" stroke="#F5F5F5" stroke-width="2" stroke-linecap="round" stroke-linejoin="round"/>
</svg>
