<svg width="52" height="52" viewBox="0 0 52 52" fill="none" xmlns="http://www.w3.org/2000/svg">
<path d="M0.733334 24V0.666664H24V24H0.733334ZM6 18.6667H18.7333V6H6V18.6667ZM0.733334 51.2667V28H24V51.2667H0.733334ZM6 46H18.7333V33.2667H6V46ZM28 24V0.666664H51.3333V24H28ZM33.3333 18.6667H46V6H33.3333V18.6667ZM45.5333 51.2667V45.4667H51.3333V51.2667H45.5333ZM28 33.8667V28H33.8V33.8667H28ZM33.8 39.6667V33.8667H39.6667V39.6667H33.8ZM28 45.4667V39.6667H33.8V45.4667H28ZM33.8 51.2667V45.4667H39.6667V51.2667H33.8ZM39.6667 45.4667V39.6667H45.5333V45.4667H39.6667ZM39.6667 33.8667V28H45.5333V33.8667H39.6667ZM45.5333 39.6667V33.8667H51.3333V39.6667H45.5333Z" fill="black"/>
</svg>
